# Blender 4.5.3 LTS
# www.blender.org
mtllib nave.mtl
o Cube
v 4.642553 0.511515 -0.808433
v 4.642553 0.313191 -0.808433
v 4.642553 0.511515 0.830665
v 4.642553 0.313191 0.830665
v 0.000000 0.029823 -4.713706
v 0.000000 1.000000 1.000000
v 0.000000 -1.365360 1.398108
v 0.000000 0.855364 -0.808433
v 1.763914 0.812631 1.925553
v 0.000000 -1.162133 0.754394
v 0.888097 0.210918 -1.040992
v 1.826228 0.385121 3.648593
v 0.000000 0.989644 0.197764
v 0.000000 -0.297950 0.366573
v 0.000000 0.680667 -1.139236
v 0.000000 0.513808 1.424632
v 2.726614 0.374642 1.378109
v 2.037270 -0.383090 -0.281080
v 2.288706 0.073786 -0.923963
v 2.510750 -0.013814 1.326959
v -4.642553 0.511515 -0.808433
v -4.642553 0.313191 -0.808433
v -4.642553 0.511515 0.830665
v -4.642553 0.313191 0.830665
v -1.763914 0.812631 1.925553
v -0.888097 0.210918 -1.040992
v -1.826228 0.385121 3.648593
v -2.726614 0.374642 1.378109
v -2.037270 -0.383090 -0.281080
v -2.288706 0.073786 -0.923963
v -2.510750 -0.013814 1.326959
v -4.642553 0.511515 -0.808433
v -4.642553 0.313191 -0.808433
v -4.642553 0.511515 0.830665
v -4.642553 0.313191 0.830665
v -1.763914 0.812631 1.925553
v -0.888097 0.210918 -1.040992
v -1.826228 0.385121 3.648593
v -2.726614 0.374642 1.378109
v -2.037270 -0.383090 -0.281080
v -2.288706 0.073786 -0.923963
v -2.510750 -0.013814 1.326959
v 4.642553 0.511515 -0.808433
v 4.642553 0.313191 -0.808433
v 4.642553 0.511515 0.830665
v 4.642553 0.313191 0.830665
v 1.763914 0.812631 1.925553
v 0.888097 0.210918 -1.040992
v 1.826228 0.385121 3.648593
v 2.726614 0.374642 1.378109
v 2.037270 -0.383090 -0.281080
v 2.288706 0.073786 -0.923963
v 2.510750 -0.013814 1.326959
vn 0.0487 -0.9963 0.0706
vn 1.0000 -0.0000 -0.0000
vn -0.1886 0.9344 0.3020
vn 0.9261 0.0426 -0.3750
vn -0.4442 -0.4959 0.7462
vn -0.8065 -0.4988 -0.3175
vn -0.3702 0.9078 -0.1973
vn 0.6075 0.7761 0.1692
vn 0.7652 -0.6307 -0.1289
vn 0.8370 0.2032 -0.5080
vn -0.5706 -0.5886 -0.5728
vn 0.2391 -0.9270 -0.2889
vn 0.3977 0.8779 -0.2667
vn -0.2993 0.9520 -0.0646
vn -0.2685 0.5226 -0.8092
vn 0.0126 0.7969 0.6040
vn -0.1943 -0.9576 0.2125
vn -0.0487 -0.9963 0.0706
vn -1.0000 -0.0000 -0.0000
vn 0.1886 0.9344 0.3021
vn -0.9261 0.0426 -0.3750
vn 0.4442 -0.4959 0.7462
vn 0.8065 -0.4988 -0.3175
vn 0.3702 0.9078 -0.1973
vn -0.6075 0.7761 0.1692
vn -0.7652 -0.6307 -0.1289
vn -0.8370 0.2032 -0.5080
vn 0.5706 -0.5886 -0.5728
vn -0.2391 -0.9270 -0.2889
vn -0.3977 0.8779 -0.2667
vn 0.2993 0.9520 -0.0646
vn 0.2685 0.5226 -0.8092
vn -0.0126 0.7969 0.6040
vn 0.1943 -0.9576 0.2125
vt 0.324929 0.500000
vt 0.375000 0.500000
vt 0.375000 0.750000
vt 0.324929 0.750000
vt 0.625000 0.500000
vt 0.625000 0.750000
vt 0.375000 0.449929
vt 0.625000 0.449929
vt 0.725142 0.500000
vt 0.750000 0.500000
vt 0.750000 0.750000
vt 0.725142 0.750000
vt 0.375000 0.850142
vt 0.625000 0.850142
vt 0.625000 0.875000
vt 0.375000 0.875000
vt 0.375000 0.800071
vt 0.625000 0.800071
vt 0.675071 0.500000
vt 0.675071 0.750000
vt 0.375000 0.375000
vt 0.625000 0.375000
vt 0.625000 0.399858
vt 0.375000 0.399858
vt 0.250000 0.500000
vt 0.274858 0.500000
vt 0.274858 0.750000
vt 0.250000 0.750000
s 0
usemtl Material
f 19/1/1 2/2/1 4/3/1 17/4/1
f 2/2/2 1/5/2 3/6/2 4/3/2
f 19/7/3 18/8/3 1/5/3 2/2/3
f 10/9/4 8/10/4 6/11/4 12/12/4
f 9/13/5 12/14/5 6/15/5 7/16/5
f 17/17/6 20/18/6 12/14/6 9/13/6
f 18/19/7 10/9/7 12/12/7 20/20/7
f 5/21/8 8/22/8 10/23/8 11/24/8
f 5/25/9 11/26/9 9/27/9 7/28/9
f 12/12/10 10/9/10 14/9/10 16/12/10
f 11/24/11 10/23/11 14/23/11 15/24/11
f 9/13/12 12/14/12 16/14/12 13/13/12
f 9/27/13 11/26/13 15/26/13 13/27/13
f 1/5/14 18/19/14 20/20/14 3/6/14
f 4/3/15 3/6/15 20/18/15 17/17/15
f 11/24/16 10/23/16 18/8/16 19/7/16
f 11/26/17 19/1/17 17/4/17 9/27/17
f 30/1/18 28/4/18 24/3/18 22/2/18
f 22/2/19 24/3/19 23/6/19 21/5/19
f 30/7/20 22/2/20 21/5/20 29/8/20
f 10/9/21 27/12/21 6/11/21 8/10/21
f 25/13/22 7/16/22 6/15/22 27/14/22
f 28/17/23 25/13/23 27/14/23 31/18/23
f 29/19/24 31/20/24 27/12/24 10/9/24
f 5/21/25 26/24/25 10/23/25 8/22/25
f 5/25/26 7/28/26 25/27/26 26/26/26
f 27/12/27 16/12/27 14/9/27 10/9/27
f 26/24/28 15/24/28 14/23/28 10/23/28
f 25/13/29 13/13/29 16/14/29 27/14/29
f 25/27/30 13/27/30 15/26/30 26/26/30
f 21/5/31 23/6/31 31/20/31 29/19/31
f 24/3/32 28/17/32 31/18/32 23/6/32
f 26/24/33 30/7/33 29/8/33 10/23/33
f 26/26/34 25/27/34 28/4/34 30/1/34
f 41/1/18 39/4/18 35/3/18 33/2/18
f 33/2/19 35/3/19 34/6/19 32/5/19
f 41/7/20 33/2/20 32/5/20 40/8/20
f 10/9/21 38/12/21 6/11/21 8/10/21
f 36/13/22 7/16/22 6/15/22 38/14/22
f 39/17/23 36/13/23 38/14/23 42/18/23
f 40/19/24 42/20/24 38/12/24 10/9/24
f 5/21/25 37/24/25 10/23/25 8/22/25
f 5/25/26 7/28/26 36/27/26 37/26/26
f 38/12/27 16/12/27 14/9/27 10/9/27
f 37/24/28 15/24/28 14/23/28 10/23/28
f 36/13/29 13/13/29 16/14/29 38/14/29
f 36/27/30 13/27/30 15/26/30 37/26/30
f 32/5/31 34/6/31 42/20/31 40/19/31
f 35/3/32 39/17/32 42/18/32 34/6/32
f 37/24/33 41/7/33 40/8/33 10/23/33
f 37/26/34 36/27/34 39/4/34 41/1/34
f 52/1/1 44/2/1 46/3/1 50/4/1
f 44/2/2 43/5/2 45/6/2 46/3/2
f 52/7/3 51/8/3 43/5/3 44/2/3
f 10/9/4 8/10/4 6/11/4 49/12/4
f 47/13/5 49/14/5 6/15/5 7/16/5
f 50/17/6 53/18/6 49/14/6 47/13/6
f 51/19/7 10/9/7 49/12/7 53/20/7
f 5/21/8 8/22/8 10/23/8 48/24/8
f 5/25/9 48/26/9 47/27/9 7/28/9
f 49/12/10 10/9/10 14/9/10 16/12/10
f 48/24/11 10/23/11 14/23/11 15/24/11
f 47/13/12 49/14/12 16/14/12 13/13/12
f 47/27/13 48/26/13 15/26/13 13/27/13
f 43/5/14 51/19/14 53/20/14 45/6/14
f 46/3/15 45/6/15 53/18/15 50/17/15
f 48/24/16 10/23/16 51/8/16 52/7/16
f 48/26/17 52/1/17 50/4/17 47/27/17
